<svg xmlns="http://www.w3.org/2000/svg" xml:space="preserve" style="fill-rule:evenodd;clip-rule:evenodd;stroke-linejoin:round;stroke-miterlimit:2" width="256" height="256" viewBox="0 0 150 150" fill="#fff">
  <path d="M75.003.003c-41.42 0-75 33.58-75 75 0 41.394 33.606 75 75 75 41.421 0 75-33.579 75-75h-37.539c0 20.69-16.771 37.461-37.46 37.461-20.677 0-37.462-16.785-37.462-37.46 0-20.69 16.772-37.462 37.461-37.462V.003Z"/>
  <path d="M149.994 0h-63.16v21.055A42.097 42.097 0 0 0 99.173 50.83a42.09 42.09 0 0 0 29.766 12.333h21.056V0Z"/>
</svg>